<?xml version="1.0" standalone="no"?>
<!DOCTYPE svg PUBLIC "-//W3C//DTD SVG 20010904//EN"
 "http://www.w3.org/TR/2001/REC-SVG-20010904/DTD/svg10.dtd">
<svg version="1.0" xmlns="http://www.w3.org/2000/svg"
 width="102.000000pt" height="102.000000pt" viewBox="0 0 102.000000 102.000000"
 preserveAspectRatio="xMidYMid meet">
<metadata>
Created by potrace 1.10, written by Peter Selinger 2001-2011
</metadata>
<g transform="translate(0.000000,102.000000) scale(0.100000,-0.100000)"
fill="#a52a2a" stroke="none">
<path d="M385 970 c-35 -14 -66 -57 -72 -99 l-6 -41 -28 25 c-40 33 -65 39
-100 24 -61 -25 -78 -116 -39 -207 12 -27 32 -60 46 -73 l24 -22 -27 -26 c-14
-14 -39 -54 -56 -89 -25 -54 -29 -72 -24 -117 11 -104 66 -177 171 -225 83
-38 114 -47 100 -29 -6 8 -55 108 -108 223 -90 194 -96 211 -80 225 9 9 18 12
21 6 2 -5 53 -113 112 -240 l107 -230 47 -3 c26 -2 47 -1 47 1 0 3 -56 126
-125 273 -115 245 -124 270 -109 281 10 7 19 12 20 10 4 -4 244 -517 254 -544
8 -20 12 -21 47 -11 21 5 39 11 40 12 2 1 -58 132 -132 291 -74 159 -134 289
-132 291 1 1 11 4 21 6 16 2 40 -41 151 -280 73 -155 135 -285 138 -289 13
-12 120 51 171 101 94 92 125 210 79 301 -11 22 -23 51 -26 65 -5 19 -26 34
-87 64 -58 29 -79 44 -75 55 2 9 10 39 16 66 7 28 21 56 31 63 25 18 20 56 -9
60 -26 4 -50 -32 -34 -51 7 -9 5 -33 -6 -77 -9 -36 -17 -66 -18 -68 -2 -2 -19
0 -38 3 -35 7 -36 8 -39 59 -3 43 0 53 17 61 25 13 31 48 11 64 -28 23 -82
-27 -56 -53 5 -5 10 -35 10 -66 l0 -55 -44 3 -44 4 -4 62 c-8 124 -92 225
-163 196z m74 -45 c35 -30 57 -87 66 -168 7 -66 20 -77 87 -77 62 0 133 -22
213 -64 81 -44 96 -70 102 -182 4 -57 0 -81 -16 -115 -23 -52 -87 -115 -152
-152 -53 -30 -53 -30 -89 48 -12 28 -36 79 -53 115 -16 36 -56 121 -88 189
-33 68 -59 127 -59 131 0 17 -43 60 -59 60 -10 0 -25 -8 -35 -19 -13 -15 -15
-24 -6 -47 12 -33 28 -70 41 -97 18 -34 199 -429 199 -433 0 -2 -7 -4 -15 -4
-9 0 -24 19 -34 43 -10 23 -36 78 -56 122 -21 44 -68 145 -105 225 -37 79 -74
149 -83 154 -19 12 -67 -17 -67 -42 0 -9 52 -127 115 -262 63 -134 115 -245
115 -247 0 -2 -8 -3 -18 -3 -19 0 -22 6 -176 334 -31 65 -56 124 -56 131 0 7
-8 23 -18 36 -64 84 -85 165 -57 219 24 47 56 51 110 15 45 -31 58 -24 74 40
11 44 41 75 72 75 10 0 31 -11 48 -25z m-256 -532 c20 -43 54 -118 77 -166 23
-49 40 -91 37 -94 -3 -2 -23 5 -45 16 -98 50 -141 115 -142 213 0 54 15 108
30 108 4 0 23 -35 43 -77z"/>
</g>
</svg>
